<svg width="920" height="24" viewBox="0 0 920 24" fill="none" xmlns="http://www.w3.org/2000/svg">
<rect x="21" y="10" width="878" height="4" fill="#D9D9D9"/>
<rect x="21" y="10" width="878" height="4" fill="#213D49"/>
<mask id="mask0_1084_6090" style="mask-type:alpha" maskUnits="userSpaceOnUse" x="0" y="0" width="24" height="24">
<rect width="24" height="24" fill="#D9D9D9"/>
</mask>
<g mask="url(#mask0_1084_6090)">
<path d="M10.6 16.6L17.65 9.55L16.25 8.15L10.6 13.8L7.75 10.95L6.35 12.35L10.6 16.6ZM12 22C10.6167 22 9.31667 21.7375 8.1 21.2125C6.88333 20.6875 5.825 19.975 4.925 19.075C4.025 18.175 3.3125 17.1167 2.7875 15.9C2.2625 14.6833 2 13.3833 2 12C2 10.6167 2.2625 9.31667 2.7875 8.1C3.3125 6.88333 4.025 5.825 4.925 4.925C5.825 4.025 6.88333 3.3125 8.1 2.7875C9.31667 2.2625 10.6167 2 12 2C13.3833 2 14.6833 2.2625 15.9 2.7875C17.1167 3.3125 18.175 4.025 19.075 4.925C19.975 5.825 20.6875 6.88333 21.2125 8.1C21.7375 9.31667 22 10.6167 22 12C22 13.3833 21.7375 14.6833 21.2125 15.9C20.6875 17.1167 19.975 18.175 19.075 19.075C18.175 19.975 17.1167 20.6875 15.9 21.2125C14.6833 21.7375 13.3833 22 12 22Z" fill="#213D49"/>
</g>
<mask id="mask1_1084_6090" style="mask-type:alpha" maskUnits="userSpaceOnUse" x="896" y="0" width="24" height="24">
<rect x="896" width="24" height="24" fill="#D9D9D9"/>
</mask>
<g mask="url(#mask1_1084_6090)">
<path d="M908 22C906.617 22 905.317 21.7375 904.1 21.2125C902.883 20.6875 901.825 19.975 900.925 19.075C900.025 18.175 899.312 17.1167 898.788 15.9C898.262 14.6833 898 13.3833 898 12C898 10.6167 898.262 9.31667 898.788 8.1C899.312 6.88333 900.025 5.825 900.925 4.925C901.825 4.025 902.883 3.3125 904.1 2.7875C905.317 2.2625 906.617 2 908 2C909.383 2 910.683 2.2625 911.9 2.7875C913.117 3.3125 914.175 4.025 915.075 4.925C915.975 5.825 916.688 6.88333 917.212 8.1C917.737 9.31667 918 10.6167 918 12C918 13.3833 917.737 14.6833 917.212 15.9C916.688 17.1167 915.975 18.175 915.075 19.075C914.175 19.975 913.117 20.6875 911.9 21.2125C910.683 21.7375 909.383 22 908 22Z" fill="#213D49"/>
</g>
<mask id="mask2_1084_6090" style="mask-type:alpha" maskUnits="userSpaceOnUse" x="451" y="0" width="24" height="24">
<rect x="451" width="24" height="24" fill="#D9D9D9"/>
</mask>
<g mask="url(#mask2_1084_6090)">
<path d="M463 22C461.617 22 460.317 21.7375 459.1 21.2125C457.883 20.6875 456.825 19.975 455.925 19.075C455.025 18.175 454.312 17.1167 453.788 15.9C453.262 14.6833 453 13.3833 453 12C453 10.6167 453.262 9.31667 453.788 8.1C454.312 6.88333 455.025 5.825 455.925 4.925C456.825 4.025 457.883 3.3125 459.1 2.7875C460.317 2.2625 461.617 2 463 2C464.383 2 465.683 2.2625 466.9 2.7875C468.117 3.3125 469.175 4.025 470.075 4.925C470.975 5.825 471.688 6.88333 472.212 8.1C472.737 9.31667 473 10.6167 473 12C473 13.3833 472.737 14.6833 472.212 15.9C471.688 17.1167 470.975 18.175 470.075 19.075C469.175 19.975 468.117 20.6875 466.9 21.2125C465.683 21.7375 464.383 22 463 22Z" fill="white"/>
</g>
<mask id="mask3_1084_6090" style="mask-type:alpha" maskUnits="userSpaceOnUse" x="451" y="0" width="24" height="24">
<rect x="451" width="24" height="24" fill="#D9D9D9"/>
</mask>
<g mask="url(#mask3_1084_6090)">
<path d="M461.6 16.6L468.65 9.55L467.25 8.15L461.6 13.8L458.75 10.95L457.35 12.35L461.6 16.6ZM463 22C461.617 22 460.317 21.7375 459.1 21.2125C457.883 20.6875 456.825 19.975 455.925 19.075C455.025 18.175 454.312 17.1167 453.788 15.9C453.262 14.6833 453 13.3833 453 12C453 10.6167 453.262 9.31667 453.788 8.1C454.312 6.88333 455.025 5.825 455.925 4.925C456.825 4.025 457.883 3.3125 459.1 2.7875C460.317 2.2625 461.617 2 463 2C464.383 2 465.683 2.2625 466.9 2.7875C468.117 3.3125 469.175 4.025 470.075 4.925C470.975 5.825 471.688 6.88333 472.212 8.1C472.737 9.31667 473 10.6167 473 12C473 13.3833 472.737 14.6833 472.212 15.9C471.688 17.1167 470.975 18.175 470.075 19.075C469.175 19.975 468.117 20.6875 466.9 21.2125C465.683 21.7375 464.383 22 463 22Z" fill="#213D49"/>
</g>
</svg>
